<svg id="Calque_1" data-name="Calque 1" xmlns="http://www.w3.org/2000/svg" viewBox="0 0 473.82 425.94"><defs><style>.cls-1{fill:#fd4967;}</style></defs><path class="cls-1" d="M485.5,43.4c-14.2,6.3-70,54.7-121.7,105.5-19.8,19.4-22.9,23.4-24.3,31.2-.7,3.6-.7,3.6-6.8,4.3-6.5.7-14.6,4-18.9,7.8-8.7,7.7-13.6,18.7-14.8,33-1.1,14-4.8,19.6-16.7,25.7-8.1,4.1-4.6,8.9,9.7,13.7,8.5,2.9,22.4,2.5,31.8-.8,9.8-3.5,20.6-10.4,30-19.3,10-9.4,13.4-15.4,14-25.2l.5-7.3h3.1c7.2,0,12.3-3.9,33.7-25.7,49.1-50.2,96.6-105,104-120.1,1.6-3.2,1.9-5.2,1.4-8-.9-5.3-5.1-12-8.8-14.3S490,41.4,485.5,43.4Zm10.5,16c0,6.2-57.9,73.5-93.7,108.8l-7.8,7.8-8.5-8.6-8.5-8.6,9-8.5c31.2-29.5,59.3-55,76.8-69.7C486.8,61,496,55,496,59.4ZM376.8,178.3l8.2,8.2-5.6,5.8c-4.6,4.8-6,5.7-9,5.7-6.7,0-14-6-15.1-12.4-.5-3.5-.3-3.9,5.8-9.6,3.5-3.3,6.6-6,6.9-6S372.2,173.7,376.8,178.3Zm-30.5,23.5c4.9,3.3,8.7,9.7,8.7,14.8-.1,6.1-3.1,11.4-10.8,18.5-10,9.2-21.1,14.9-32.6,16.5l-4.9.7,2.6-3.5c4.3-5.6,6.6-11.9,7.6-21,.5-4.7,1.7-10.3,2.6-12.4,2.6-6.2,8.7-13.5,13-15.5C337.3,197.7,340.8,198.2,346.3,201.8Z" transform="translate(-36.9 -42.06)"/><path class="cls-1" d="M65,108.6a39.81,39.81,0,0,0-24.9,21.3l-2.6,5.6-.3,85.7L37,306.8l2.4,2.9c2.1,2.4,3.2,2.8,7.6,2.8s5.5-.4,7.6-2.8l2.4-2.8V224.3c0-80.6.1-82.8,2-86.8,2.4-5,6.4-8.1,12.2-9.5,2.7-.6,58.6-1,154.9-1H376.7l2.7-2.6c2.8-2.9,3.6-8.7,1.6-12.5-2.8-5.1,5-4.9-158.7-4.8C92.1,107.1,69.7,107.3,65,108.6Z" transform="translate(-36.9 -42.06)"/><path class="cls-1" d="M437.9,165.9l-2.9,2.9v99.4c0,65.2-.4,100.6-1,103a20.69,20.69,0,0,1-9.4,11.6c-2.9,1.6-14.7,1.7-178.6,1.7H70.5l-4.7-2.7c-7.3-4.3-8.8-8.5-8.8-24.1V345H235.9c178.6,0,178.8,0,181.4-2,3.2-2.6,4.4-7.9,2.7-12.1-2.7-6.3,11.3-5.9-195-5.9H36.9l.3,25.3.3,25.3,3.3,6.6A38,38,0,0,0,67.9,403c3.3.6,30.4,1,69.7,1H202v15.8l-17.2.4c-16.5.3-17.6.4-23.2,3.1a58.76,58.76,0,0,0-10.2,6.2c-8.5,7-14.4,20.1-14.4,32.1V468H329.3l-.5-8.9c-.8-14.1-7.3-25.6-18.3-32.6-7.6-4.9-14.2-6.5-26.7-6.5H273V404h73.5c50.5,0,75.1-.4,78.7-1.1a38.36,38.36,0,0,0,26.5-21.4l2.8-6V167.8l-2.8-2.4A10.07,10.07,0,0,0,437.9,165.9ZM257,411.7c0,6.1-.5,8.7-2.1,11.9-2,3.6-2.1,4.3-.8,6.9,2.3,4.9,4.8,5.5,23.3,5.5,15.1,0,17.4.2,21.3,2.1,4.4,2.1,12.3,10.2,12.3,12.5,0,1.2-12.9,1.4-78,1.4-42.9,0-78-.2-78-.5,0-1.8,3.4-6.7,6.6-9.5,6.7-5.9,7.6-6,38.9-6,29.9,0,33.3-.4,34.9-4.5a9,9,0,0,0-1.6-9.2c-1.8-2-3.1-2.3-9-2.3H218V404h39Z" transform="translate(-36.9 -42.06)"/><path class="cls-1" d="M237.3,348.5c-12.7,7.6-11.5,25.4,2.2,31.6,5.1,2.4,8.9,2.3,14.1,0,6.7-3,10.7-9.5,10.6-17.2-.1-4.4-1.4-7.2-5.1-11.2A16.87,16.87,0,0,0,237.3,348.5Zm13,7.6c2.8,1.3,4.7,4.8,4.7,8.5,0,6.7-10.7,10.2-14.9,4.8C234,361.7,241.5,352.1,250.3,356.1Z" transform="translate(-36.9 -42.06)"/></svg>