<svg id="Calque_1" data-name="Calque 1" xmlns="http://www.w3.org/2000/svg" viewBox="0 0 512.02 511.92"><defs><style>.cls-1{fill:#fd4967;}</style></defs><path class="cls-1" d="M41.3,1.4C22.2,6,6,22.3,1.5,41.1c-2.2,9.7-2.2,313.1,0,322.8a55.73,55.73,0,0,0,34,38.4c5.9,2.2,6.7,2.2,70.5,2.7l64.5.5.3,23.6.2,23.6L156.9,462c-7.7,5.2-14.9,10.5-16,11.8-1.6,2.1-1.9,4.1-1.9,12.4,0,10.9,1.4,15,6.7,20,6.4,6.1.8,5.8,110.3,5.8s103.9.3,110.4-5.8c5-4.7,6.6-9.6,6.6-20.3,0-8-.3-10-1.9-12.1-1.1-1.3-8.3-6.6-16-11.7L341,452.7v-9.9c0-9.7-.1-10-2.9-12.9a10.59,10.59,0,0,0-16.4,2.1c-1.4,2.2-1.7,5.5-1.7,15.9,0,7.6.5,14,1.1,15.5s7,6.4,16,12.3c13.1,8.7,14.9,10.1,14.9,12.5V491H160v-2.8c0-2.4,1.8-3.8,14.9-12.5,9-5.9,15.3-10.8,16-12.3.7-1.7,1.1-11.7,1.1-30.4V405l139.3-.2,139.2-.3,6-2.2a55.25,55.25,0,0,0,29-25.4c6.1-11.6,6.6-16.1,6.3-51.5l-.3-31.4-2.8-2.7-2.7-2.8-222.1-.3c-246.7-.2-226.5-.8-229.5,6.5a10.49,10.49,0,0,0,2.7,11.9c2,1.8,8.9,1.9,217.8,2.4l215.6.5v24c0,20.7-.3,24.7-1.8,29.3-2.5,7-10.1,15.2-16.9,18.3l-5.3,2.4h-210c-204.1,0-210.1-.1-214.9-1.9-5.8-2.2-12.8-8.3-16.1-14A42.64,42.64,0,0,1,22,357.5c-.8-4.3-1-48.5-.8-158.5l.3-152.5,2.8-6A30.73,30.73,0,0,1,40.4,24.3l6.1-2.8,206.9-.3c180.4-.2,207.7,0,212.8,1.3,10.4,2.6,16.8,8.1,21.7,18.5l2.6,5.5L491,148c.3,55.8.9,102.2,1.3,103.1a12.43,12.43,0,0,0,4.1,3.4,10.51,10.51,0,0,0,12.7-2.1l2.4-2.6.3-99.6c.2-69.1-.1-101.7-.8-106.2-3.4-20.2-20.1-37.7-40.2-42.5C465.3.2,436.4,0,255.5.1,90.4.2,45.4.4,41.3,1.4Z" transform="translate(0.15 -0.08)"/><path class="cls-1" d="M196.5,76.9c-4.7,2.9-67.2,66.3-68,68.9-1.8,6.1-.9,7.3,35,43.2L198,223.5h4.6c3.9,0,5-.5,7.5-3.3,2.2-2.5,2.9-4.2,2.9-7.4,0-4.2-.2-4.4-29.5-33.8L154,149.5l28.1-28c15.4-15.4,28.7-29.2,29.5-30.7C217,80.5,206.4,70.7,196.5,76.9Z" transform="translate(0.15 -0.08)"/><path class="cls-1" d="M301.9,77.9c-2.4,2.4-2.9,3.8-2.9,7.7v4.8l29.5,29.5,29.4,29.6L328.5,179c-27.9,28-29.5,29.8-29.5,33.2,0,5.1,1.7,8.3,5.5,10.3,6.7,3.7,7,3.5,44.3-33.8,37.8-37.8,37.8-37.8,33.4-44.9-1.2-1.8-16.9-18-35-36.1L314.4,75h-4.8C305.7,75,304.3,75.5,301.9,77.9Z" transform="translate(0.15 -0.08)"/></svg>