<?xml version="1.0" encoding="UTF-8"?>
<!DOCTYPE svg PUBLIC "-//W3C//DTD SVG 1.1//EN" "http://www.w3.org/Graphics/SVG/1.1/DTD/svg11.dtd">
<svg xmlns="http://www.w3.org/2000/svg" version="1.1" width="1200px" height="1200px" style="shape-rendering:geometricPrecision; text-rendering:geometricPrecision; image-rendering:optimizeQuality; fill-rule:evenodd; clip-rule:evenodd" xmlns:xlink="http://www.w3.org/1999/xlink">
<g><path style="opacity:0.999" fill="#007def" d="M 941.5,1012.5 C 941.715,1010.82 941.048,1009.82 939.5,1009.5C 861.374,874.238 783.541,738.905 706,603.5C 704,600.833 702,598.167 700,595.5C 667.064,536.612 633.397,478.279 599,420.5C 507.011,579.652 415.178,738.819 323.5,898C 365.167,898.333 406.833,898.667 448.5,899C 471.458,938.752 494.124,978.585 516.5,1018.5C 382.833,1018.5 249.167,1018.5 115.5,1018.5C 118.581,1009.01 123.248,1000.34 129.5,992.5C 134.895,981.375 141.062,970.708 148,960.5C 231.362,815.965 314.528,671.299 397.5,526.5C 399.048,526.179 399.715,525.179 399.5,523.5C 461.084,416.068 522.917,308.735 585,201.5C 589,194.833 593,188.167 597,181.5C 597.837,179.993 599.004,179.493 600.5,180C 715.954,380.331 831.787,580.497 948,780.5C 983.223,843.279 1019.22,905.612 1056,967.5C 1061.59,979.022 1067.92,990.022 1075,1000.5C 1078.12,1006.41 1080.96,1012.41 1083.5,1018.5C 1037.5,1018.67 991.499,1018.5 945.5,1018C 943.924,1016.27 942.59,1014.44 941.5,1012.5 Z"/></g>
<g><path style="opacity:0.275" fill="#0f263c" d="M 399.5,523.5 C 399.715,525.179 399.048,526.179 397.5,526.5C 397.932,525.29 398.599,524.29 399.5,523.5 Z"/></g>
<g><path style="opacity:0.975" fill="#00c356" d="M 657.5,604.5 C 657.285,606.179 657.952,607.179 659.5,607.5C 738.141,744.107 816.808,880.774 895.5,1017.5C 848.933,1018.83 802.433,1018.83 756,1017.5C 693.572,908.971 630.906,800.638 568,692.5C 567.416,689.743 567.75,687.077 569,684.5C 591.518,646.643 613.685,608.477 635.5,570C 635.833,569.833 636.167,569.667 636.5,569.5C 637.48,570.981 638.647,572.315 640,573.5C 645.871,583.92 651.705,594.253 657.5,604.5 Z"/></g>
<g><path style="opacity:0.137" fill="#0a2815" d="M 657.5,604.5 C 658.401,605.29 659.068,606.29 659.5,607.5C 657.952,607.179 657.285,606.179 657.5,604.5 Z"/></g>
<g><path style="opacity:0.991" fill="#f08f00" d="M 542.5,978.5 C 542.715,976.821 542.048,975.821 540.5,975.5C 517.392,935.458 494.392,895.292 471.5,855C 493.852,814.809 516.852,774.976 540.5,735.5C 542.149,736.648 543.649,737.981 545,739.5C 582.589,806.356 620.923,872.689 660,938.5C 674.335,965.495 689.501,991.995 705.5,1018C 658.833,1018.67 612.167,1018.67 565.5,1018C 557.682,1004.86 550.015,991.689 542.5,978.5 Z"/></g>
<g><path style="opacity:0.329" fill="#2d2002" d="M 540.5,975.5 C 542.048,975.821 542.715,976.821 542.5,978.5C 541.599,977.71 540.932,976.71 540.5,975.5 Z"/></g>
<g><path style="opacity:0.09" fill="#037f87" d="M 939.5,1009.5 C 941.048,1009.82 941.715,1010.82 941.5,1012.5C 940.599,1011.71 939.932,1010.71 939.5,1009.5 Z"/></g>
</svg>
